<svg width="150" height="150" viewBox="0 0 150 150" fill="none" xmlns="http://www.w3.org/2000/svg">
<rect width="150" height="150" fill="#15161F"/>
<path d="M100.02 113.184C99.8788 112.936 99.7726 112.635 99.7018 112.281C99.631 111.892 99.5956 111.556 99.5956 111.272V110.264V99.1674V99.0613C99.5956 98.7781 99.631 98.4772 99.7018 98.1587C99.808 97.8047 99.9142 97.5216 100.02 97.3092L104.905 92.4247C105.153 92.3186 105.453 92.2301 105.807 92.1593C106.161 92.0531 106.48 92 106.763 92H108.197H115.789H116.798H117.806H119.08H121.204V92.0531C121.735 92.1239 122.231 92.2478 122.691 92.4247L127.575 97.3092C127.681 97.557 127.77 97.8578 127.841 98.2118C127.947 98.5657 128 98.8843 128 99.1674V99.5922V109.892V128.156C128 128.439 127.894 128.687 127.681 128.899C127.504 129.076 127.274 129.165 126.991 129.165H119.611C119.328 129.165 119.08 129.076 118.868 128.899C118.691 128.687 118.603 128.439 118.603 128.156V119.449C118.603 119.166 118.514 118.935 118.337 118.758C118.16 118.581 117.93 118.493 117.647 118.493H111.382H108.727H106.763C106.48 118.493 106.161 118.458 105.807 118.387C105.453 118.281 105.153 118.174 104.905 118.068L100.02 113.184ZM118.974 100.442H108.568V109.839H118.974V100.442Z" fill="#F3F6F6"/>
<path d="M92.4618 92C92.745 92 92.975 92.1062 93.152 92.3186C93.3644 92.4955 93.4705 92.7256 93.4705 93.0088V104.211V110.954V128.156C93.4705 128.439 93.3644 128.687 93.152 128.899C92.975 129.076 92.745 129.165 92.4618 129.165H85.082C84.7988 129.165 84.5688 129.076 84.3918 128.899C84.2148 128.687 84.1263 128.439 84.1263 128.156V119.449C84.1263 119.166 84.0201 118.935 83.8078 118.758C83.6308 118.581 83.4007 118.493 83.1176 118.493H79.6135H74.0919H72.2337C71.9505 118.493 71.632 118.458 71.278 118.387C70.9241 118.281 70.6232 118.174 70.3754 118.068L65.491 113.184C65.3494 112.936 65.2432 112.635 65.1724 112.281C65.1016 111.892 65.0662 111.556 65.0662 111.272V109.68V97.734V93.0088C65.0662 92.7256 65.1547 92.4955 65.3317 92.3186C65.5441 92.1062 65.7918 92 66.075 92H73.4017C73.6849 92 73.9149 92.1062 74.0919 92.3186C74.3043 92.4955 74.4104 92.7256 74.4104 93.0088V95.3448V103.096V108.14C74.4104 108.423 74.4989 108.671 74.6759 108.883C74.8883 109.06 75.136 109.149 75.4192 109.149H83.1176C83.4007 109.149 83.6308 109.06 83.8078 108.883C84.0201 108.671 84.1263 108.423 84.1263 108.14V93.0088C84.1263 92.7256 84.2148 92.4955 84.3918 92.3186C84.5688 92.1062 84.7988 92 85.082 92H92.4618Z" fill="#F3F6F6"/>
<path d="M30.8779 128C29.4257 128 28.1045 127.65 26.9144 126.951C25.7242 126.241 24.7743 125.291 24.0646 124.1C23.3549 122.899 23 121.577 23 120.135C23 118.671 23.3549 117.344 24.0646 116.153C24.7743 114.962 25.7242 114.012 26.9144 113.302C28.1154 112.592 29.4311 112.237 30.8615 112.237H33.9078V108.73H30.8615C29.4311 108.73 28.1154 108.381 26.9144 107.682C25.7242 106.972 24.7743 106.021 24.0646 104.831C23.3549 103.64 23 102.318 23 100.865C23 99.4123 23.3549 98.0905 24.0646 96.8998C24.7743 95.7091 25.7242 94.7642 26.9144 94.0651C28.1154 93.355 29.4311 93 30.8615 93C32.3246 93 33.6512 93.355 34.8414 94.0651C36.0315 94.7642 36.9814 95.7091 37.6912 96.8998C38.4118 98.0905 38.7721 99.4123 38.7721 100.865V103.88H42.2606V100.865C42.2606 99.4123 42.61 98.0905 43.3088 96.8998C44.0186 95.7091 44.9685 94.7642 46.1586 94.0651C47.3488 93.355 48.6699 93 50.1221 93C51.5743 93 52.8955 93.355 54.0856 94.0651C55.2758 94.7642 56.2257 95.7091 56.9354 96.8998C57.6451 98.0905 58 99.4123 58 100.865C58 102.318 57.6451 103.64 56.9354 104.831C56.2257 106.021 55.2758 106.972 54.0856 107.682C52.8955 108.381 51.5743 108.73 50.1221 108.73H47.1249V112.237H50.1221C51.5743 112.237 52.8955 112.592 54.0856 113.302C55.2758 114.012 56.2257 114.962 56.9354 116.153C57.6451 117.344 58 118.671 58 120.135C58 121.577 57.6451 122.899 56.9354 124.1C56.2257 125.291 55.2758 126.241 54.0856 126.951C52.8955 127.65 51.5743 128 50.1221 128C48.6699 128 47.3488 127.65 46.1586 126.951C44.9685 126.241 44.0186 125.291 43.3088 124.1C42.61 122.899 42.2606 121.577 42.2606 120.135V117.087H38.7721V120.135C38.7721 121.577 38.4118 122.899 37.6912 124.1C36.9814 125.291 36.0315 126.241 34.8414 126.951C33.6512 127.65 32.3301 128 30.8779 128ZM30.8615 123.15C31.4183 123.15 31.9261 123.013 32.3847 122.74C32.8432 122.467 33.209 122.101 33.482 121.642C33.7659 121.184 33.9078 120.681 33.9078 120.135V117.087H30.8615C30.3156 117.087 29.8133 117.229 29.3547 117.513C28.8961 117.786 28.5303 118.152 28.2574 118.611C27.9953 119.07 27.8643 119.578 27.8643 120.135C27.8643 120.681 27.9953 121.184 28.2574 121.642C28.5303 122.101 28.8961 122.467 29.3547 122.74C29.8133 123.013 30.3156 123.15 30.8615 123.15ZM30.8615 103.88H33.9078V100.865C33.9078 100.308 33.7659 99.8056 33.482 99.3577C33.209 98.8989 32.8432 98.5329 32.3847 98.2598C31.9261 97.9867 31.4183 97.8502 30.8615 97.8502C30.3156 97.8502 29.8133 97.9867 29.3547 98.2598C28.8961 98.5329 28.5303 98.8989 28.2574 99.3577C27.9953 99.8056 27.8643 100.308 27.8643 100.865C27.8643 101.422 27.9953 101.93 28.2574 102.389C28.5303 102.848 28.8961 103.214 29.3547 103.487C29.8133 103.749 30.3156 103.88 30.8615 103.88ZM47.1249 103.88H50.1221C50.679 103.88 51.1812 103.749 51.6289 103.487C52.0875 103.214 52.4533 102.848 52.7263 102.389C52.9992 101.93 53.1357 101.422 53.1357 100.865C53.1357 100.308 52.9992 99.8056 52.7263 99.3577C52.4533 98.8989 52.0875 98.5329 51.6289 98.2598C51.1812 97.9867 50.679 97.8502 50.1221 97.8502C49.5653 97.8502 49.0576 97.9867 48.599 98.2598C48.1404 98.5329 47.7801 98.8989 47.518 99.3577C47.256 99.8056 47.1249 100.308 47.1249 100.865V103.88ZM50.1221 123.15C50.679 123.15 51.1812 123.013 51.6289 122.74C52.0875 122.467 52.4533 122.101 52.7263 121.642C52.9992 121.184 53.1357 120.681 53.1357 120.135C53.1357 119.578 52.9992 119.07 52.7263 118.611C52.4533 118.152 52.0875 117.786 51.6289 117.513C51.1812 117.229 50.679 117.087 50.1221 117.087H47.1249V120.135C47.1249 120.681 47.256 121.184 47.518 121.642C47.791 122.101 48.1513 122.467 48.599 122.74C49.0576 123.013 49.5653 123.15 50.1221 123.15ZM38.7721 112.237H42.2606V108.73H38.7721V112.237Z" fill="#40F99B"/>
</svg>
